# This file uses centimeters as units for non-parametric coordinates.

mtllib LogA.mtl
g default
v 0.809017 0.363271 2.492282
v 0.309017 -0.000000 2.492282
v -0.309017 0.000000 2.492336
v -0.809017 0.363271 2.492336
v -1.007502 0.959807 2.491425
v -0.825423 1.557977 2.489097
v -0.316519 1.910863 2.491023
v 0.309017 1.902113 2.492336
v 0.809017 1.538842 2.492336
v 1.000000 0.951057 2.492336
v 0.817214 0.358525 0.805705
v 0.308628 0.000453 0.803358
v -0.324324 0.017853 0.803358
v -0.882480 0.448953 0.803313
v 0.235554 1.987795 0.802909
v 0.801368 1.552261 0.805593
v 1.017537 0.941131 0.808543
v 0.989594 0.258717 -0.329499
v 0.389281 -0.046473 -0.367600
v -0.292293 -0.009683 -0.386403
v -0.808593 0.363026 -0.393474
v -1.007502 0.959807 -0.393659
v -0.825423 1.557977 -0.393659
v -0.300864 1.901799 -0.386867
v 0.389281 1.855640 -0.358837
v 0.817214 0.358525 -2.957556
v 0.309017 -0.000000 -2.898835
v -0.309017 0.000000 -2.781736
v -0.809017 0.363271 -2.708342
v -1.000000 0.951057 -2.690168
v -0.809017 1.538842 -2.689831
v -0.309017 1.902113 -2.690168
v 0.309017 1.902113 -2.708469
v 0.817214 1.534096 -2.779492
v 1.017925 0.940678 -2.892183
v -0.000555 0.951704 2.582315
v 0.000607 0.950705 -2.909856
v -1.081137 1.527750 0.872991
v -1.153490 1.130077 0.672124
v -1.120033 1.032655 0.803117
v -1.151352 1.127584 0.950895
v -1.008067 1.771000 0.351233
v -1.008747 1.771794 0.632135
v -0.738351 1.816713 0.904711
v -0.459754 2.077923 0.947548
v -0.355614 2.076976 0.794371
v -0.461278 2.080390 0.660938
v -0.977486 1.735333 1.204280
v -0.942407 1.694419 1.532832
v 1.036228 1.291768 -0.817076
v 0.871237 1.514687 -0.889619
v 1.139679 0.678719 -0.848930
v 1.155963 0.985555 -0.822671
v 1.006112 1.310359 -0.466883
v 0.806810 1.557351 -0.180279
v 1.124867 1.000226 -0.439567
v 1.086308 0.720088 -0.142356
v 1.400763 1.258561 -0.480105
v 1.697735 1.301830 -0.533323
v 1.946078 1.445132 -0.476016
v 1.293129 1.526127 -0.385709
v 1.629722 1.470902 -0.473675
v 1.878586 1.601959 -0.503860
v 1.414183 1.297690 -0.816208
v 1.706215 1.326555 -0.745703
v 1.977776 1.369734 -0.637472
v 1.306919 1.557481 -0.694880
v 1.638436 1.490715 -0.669037
v 1.908520 1.526994 -0.644322
v 2.149554 1.617928 -0.302525
v 2.120307 1.700195 -0.344007
v 2.133279 1.682018 -0.434291
v 2.165430 1.401287 -0.491580
v 2.149155 1.465377 -0.623347
v 2.179166 1.382923 -0.590962
v -1.372789 1.838944 0.939192
v -1.244099 1.956254 0.877769
v -1.235849 1.951491 1.058451
v -1.068707 2.067936 0.962561
v -1.551576 1.946625 0.829674
v -1.530162 2.122510 0.797903
v -1.509084 2.110742 0.975040
v -1.242491 2.329594 0.898456
v -1.409633 2.213148 0.994346
v -1.417883 2.217912 0.813664
v -1.417251 2.566481 1.110688
v -1.620247 2.550469 1.207012
v -1.623807 2.542095 1.026272
vt 0.855497 0.762091
vt 0.798832 0.701912
vt 0.717618 0.686534
vt 0.642875 0.721829
vt 0.603153 0.794317
vt 0.613624 0.876309
vt 0.670288 0.936487
vt 0.751503 0.951865
vt 0.826246 0.916569
vt 0.865968 0.844082
vt 0.069475 0.071424
vt 0.117867 0.071423
vt 0.166260 0.071423
vt 0.408224 0.071420
vt 0.456617 0.071420
vt 0.505009 0.071419
vt 0.553402 0.071419
vt 0.069477 0.313387
vt 0.117870 0.313387
vt 0.166263 0.313386
vt 0.214656 0.313386
vt 0.069480 0.555351
vt 0.117873 0.555351
vt 0.166266 0.555350
vt 0.214659 0.555350
vt 0.069483 0.797315
vt 0.117875 0.797314
vt 0.166268 0.797314
vt 0.214661 0.797313
vt 0.263053 0.797313
vt 0.311446 0.797312
vt 0.359839 0.797312
vt 0.408232 0.797311
vt 0.903763 0.551742
vt 0.902452 0.469118
vt 0.852826 0.403045
vt 0.773842 0.378760
vt 0.695666 0.405539
vt 0.648162 0.473154
vt 0.649474 0.555778
vt 0.699099 0.621851
vt 0.778085 0.646136
vt 0.856259 0.619357
vt 0.734560 0.819200
vt 0.775963 0.512448
vt 0.214653 0.071422
vt 0.359832 0.071421
vt 0.408227 0.313384
vt 0.359837 0.555348
vt 0.263048 0.292033
vt 0.359834 0.331541
vt 0.263049 0.331460
vt 0.311441 0.331455
vt 0.263051 0.555349
vt 0.311444 0.555349
vt 0.263046 0.071422
vt 0.311439 0.071421
vt 0.359834 0.291089
vt 0.311440 0.214826
vt 0.255307 0.313386
vt 0.367925 0.313384
vt 0.553408 0.555346
vt 0.408230 0.555348
vt 0.448835 0.585889
vt 0.518226 0.581774
vt 0.456625 0.797311
vt 0.553410 0.797310
vt 0.505017 0.797310
vt 0.456620 0.313383
vt 0.505012 0.313383
vt 0.447499 0.465851
vt 0.553405 0.313382
vt 0.517467 0.461325
vt 0.492854 0.500307
vt 0.468353 0.503072
vt 0.492360 0.539869
vt 0.468497 0.538710
vt 0.335316 0.296419
vt 0.311441 0.257827
vt 0.311441 0.296149
vt 0.286903 0.296335
vt 0.638330 0.087947
vt 0.651220 0.066401
vt 0.653264 0.092909
vt 0.762852 0.082968
vt 0.767264 0.092932
vt 0.754780 0.085190
vt 0.748355 0.120403
vt 0.735299 0.106318
vt 0.807211 0.099323
vt 0.800335 0.089414
vt 0.808713 0.088423
vt 0.747096 0.255001
vt 0.696126 0.244379
vt 0.728593 0.201789
vt 0.759923 0.212582
vt 0.730441 0.159306
vt 0.761216 0.166318
vt 0.772770 0.130639
vt 0.773702 0.094875
vt 0.835445 0.246111
vt 0.790401 0.255760
vt 0.773785 0.213232
vt 0.812701 0.205942
vt 0.785979 0.167915
vt 0.812086 0.164587
vt 0.789873 0.129629
vt 0.812186 0.125340
vt 0.812138 0.096949
vt 0.626512 0.350090
vt 0.600754 0.375395
vt 0.585957 0.316732
vt 0.609989 0.311022
vt 0.571175 0.291080
vt 0.585923 0.270728
vt 0.656963 0.364440
vt 0.644791 0.308064
vt 0.606413 0.266608
vt 0.635470 0.264890
vt 0.615702 0.204001
vt 0.626079 0.225048
vt 0.712685 0.351228
vt 0.680283 0.345449
vt 0.677557 0.297742
vt 0.701961 0.291686
vt 0.682566 0.253161
vt 0.704843 0.262220
vt 0.662491 0.255809
vt 0.642539 0.202443
vt 0.846810 0.200090
vt 0.830131 0.161174
vt 0.861552 0.236472
vt 0.824783 0.126028
vt 0.814469 0.096677
vt 0.775012 0.095158
vt 0.785402 0.118053
vt 0.640204 0.112493
vt 0.655655 0.116550
vt 0.639305 0.150350
vt 0.623854 0.146292
vn 0.581727 -0.813381 0.002380
vn 0.581727 -0.813381 0.002380
vn 0.552430 -0.832253 0.046652
vn 0.550614 -0.833303 0.049308
vn -0.013907 -0.999889 -0.005354
vn -0.013907 -0.999889 -0.005354
vn -0.025521 -0.999631 0.009268
vn -0.026114 -0.999609 0.010014
vn -0.600342 -0.799696 -0.008734
vn -0.600342 -0.799696 -0.008734
vn -0.599838 -0.800122 -0.000441
vn -0.599822 -0.800134 -0.000189
vn -0.936534 -0.348706 0.036179
vn -0.936534 -0.348706 0.036179
vn -0.984326 -0.163618 0.065812
vn -0.939719 -0.341948 -0.000555
vn -0.936797 -0.349872 -0.000596
vn 0.084925 0.993702 0.073099
vn 0.084925 0.993702 0.073099
vn 0.098882 0.995015 -0.012950
vn 0.086191 0.996220 -0.010787
vn -0.109999 0.989666 0.091988
vn 0.599694 0.800178 0.009080
vn 0.599694 0.800178 0.009080
vn 0.599238 0.800558 0.004589
vn 0.599269 0.800533 0.004890
vn 0.946881 0.321569 0.003111
vn 0.946881 0.321569 0.003111
vn 0.946534 0.322600 0.001736
vn 0.946571 0.322489 0.001884
vn 0.948356 -0.317092 0.008621
vn 0.948356 -0.317092 0.008621
vn 0.948636 -0.310398 0.061182
vn 0.948768 -0.311504 0.052958
vn 0.512207 -0.858862 -0.000626
vn 0.512200 -0.858866 -0.000232
vn -0.033192 -0.999446 0.002344
vn -0.033145 -0.999448 0.002190
vn -0.591173 -0.806532 0.004518
vn -0.590884 -0.806746 0.004263
vn -0.985706 -0.130802 -0.106178
vn -0.944343 -0.328275 -0.021263
vn -0.945253 -0.325837 -0.018068
vn 0.512400 -0.857325 -0.049399
vn 0.512401 -0.857325 -0.049399
vn -0.029113 -0.999518 -0.010820
vn -0.029113 -0.999518 -0.010820
vn -0.586512 -0.809941 0.000428
vn -0.586512 -0.809941 0.000428
vn -0.949874 -0.312632 -0.000881
vn -0.949874 -0.312632 -0.000881
vn -0.959831 0.272932 -0.065065
vn -0.960611 0.266708 -0.078062
vn -0.953895 0.300065 -0.006788
vn -0.953895 0.300065 -0.006788
vn -0.534948 0.840565 -0.085328
vn -0.536352 0.839992 -0.082100
vn -0.567981 0.823030 -0.004387
vn -0.567981 0.823030 -0.004387
vn 0.065804 0.997020 -0.040254
vn 0.062253 0.997464 -0.034485
vn 0.035192 0.999337 0.009380
vn 0.035192 0.999337 0.009380
vn 0.027739 -0.085199 0.995978
vn 0.072456 -0.052704 0.995978
vn -0.000784 0.000527 1.000000
vn -0.027622 -0.085213 0.995980
vn -0.072953 -0.052067 0.995975
vn -0.089882 0.001961 0.995951
vn -0.073114 0.053648 0.995880
vn -0.029218 0.085167 0.995938
vn 0.026949 0.085515 0.995972
vn 0.072508 0.052656 0.995977
vn 0.089568 -0.000061 0.995981
vn -0.033713 0.033968 -0.998854
vn -0.136447 -0.055729 -0.989079
vn -0.101454 0.076416 -0.991901
vn -0.189698 -0.070197 -0.979330
vn -0.204075 -0.054047 -0.977462
vn -0.214417 0.015450 -0.976620
vn -0.173733 0.126219 -0.976671
vn -0.081062 0.199129 -0.976615
vn -0.009052 0.209884 -0.977684
vn 0.014872 0.198184 -0.980052
vn 0.018648 0.149553 -0.988578
vn -0.116262 0.981141 -0.154420
vn -0.975466 0.211985 0.059404
vn -0.958733 0.251063 0.133413
vn -0.965396 0.214106 0.148891
vn -0.975361 0.217813 -0.035049
vn -0.962358 0.201377 -0.182525
vn -0.456643 0.867709 -0.196361
vn -0.490730 0.854857 0.168534
vn -0.530024 0.845216 0.068441
vn -0.558617 0.829183 -0.020036
vn -0.531699 0.835386 0.139384
vn -0.957687 0.256138 0.131256
vn -0.957687 0.256138 0.131256
vn -0.527975 0.834751 0.156311
vn -0.527975 0.834751 0.156311
vn -0.981730 0.142338 0.126274
vn -0.981730 0.142338 0.126274
vn -0.981730 0.142338 0.126274
vn -0.099341 0.994075 -0.044105
vn -0.099341 0.994075 -0.044105
vn -0.099341 0.994075 -0.044105
vn 0.762864 0.466454 -0.447727
vn 0.790019 0.612913 -0.014393
vn 0.791483 0.610940 0.017517
vn 0.860728 0.449337 0.239255
vn 0.431987 0.119345 -0.893948
vn 0.949452 0.312350 -0.031268
vn 0.939178 -0.337004 -0.066122
vn 0.995216 -0.056045 0.080026
vn 0.995216 -0.056045 0.080026
vn 0.954972 -0.262748 0.137814
vn 0.944003 0.326357 0.048466
vn 0.869860 0.323116 0.372747
vn 0.587410 0.809279 -0.004159
vn 0.930393 0.361468 0.060900
vn 0.930393 0.361468 0.060900
vn 0.930393 0.361468 0.060900
vn 0.942808 -0.333120 0.011996
vn 0.579867 0.814691 -0.005707
vn 0.579867 0.814691 -0.005707
vn 0.949639 0.312702 -0.020071
vn 0.949639 0.312702 -0.020071
vn 0.927421 -0.363861 -0.086575
vn 0.927421 -0.363861 -0.086575
vn 0.019138 -0.107917 0.993976
vn 0.019138 -0.107917 0.993976
vn 0.092336 -0.164524 0.982042
vn 0.083811 -0.157974 0.983880
vn 0.119325 -0.187236 0.975041
vn 0.135021 -0.198834 0.970688
vn -0.249334 -0.065211 0.966220
vn -0.287373 -0.059724 0.955955
vn 0.730463 -0.682598 0.021999
vn 0.730463 -0.682598 0.021999
vn 0.526796 -0.849435 -0.030752
vn 0.573876 -0.818708 -0.019581
vn 0.185431 -0.982572 -0.012934
vn 0.185614 -0.982541 -0.012639
vn 0.152525 -0.962803 0.223041
vn 0.170365 -0.961642 0.214990
vn -0.001180 0.218358 -0.975868
vn -0.001180 0.218358 -0.975868
vn 0.060696 0.316836 -0.946536
vn 0.060789 0.316981 -0.946482
vn 0.171059 0.418559 -0.891935
vn 0.175645 0.387354 -0.905044
vn 0.181070 0.208461 -0.961123
vn 0.170617 0.119062 -0.978118
vn -0.647276 0.761728 -0.028356
vn -0.647276 0.761728 -0.028356
vn -0.368072 0.929462 0.024960
vn -0.343218 0.938800 0.029244
vn 0.044897 0.998772 0.020936
vn 0.014224 0.999896 0.002457
vn -0.245307 0.925838 -0.287487
vn -0.259046 0.928861 -0.264788
vn 0.929903 0.362623 0.061524
vn 0.929903 0.362623 0.061524
vn 0.929903 0.362623 0.061524
vn -0.596071 -0.008370 0.802888
vn -0.596071 -0.008370 0.802888
vn 0.754214 -0.527038 -0.391652
vn 0.754214 -0.527038 -0.391652
vn 0.754214 -0.527038 -0.391652
vn 0.754214 -0.527038 -0.391652
vn -0.175037 0.901262 -0.396344
vn -0.175037 0.901262 -0.396344
vn 0.200430 0.894683 0.399210
vn 0.200430 0.894684 0.399210
vn 0.200430 0.894683 0.399210
vn 0.200430 0.894684 0.399210
vn -0.092364 -0.942038 0.322541
vn -0.092364 -0.942038 0.322541
vn 0.139007 -0.103629 -0.984854
vn 0.139007 -0.103629 -0.984854
vn -0.651403 -0.239705 -0.719872
vn -0.651403 -0.239705 -0.719872
vn -0.397628 -0.312709 -0.862615
vn -0.477163 -0.293894 -0.828216
vn -0.569679 -0.495109 0.655997
vn -0.569679 -0.495109 0.655997
vn -0.564127 -0.466192 0.681488
vn -0.560282 -0.448030 0.696673
vn 0.380115 0.609723 0.695522
vn 0.380115 0.609723 0.695522
vn 0.336029 0.534482 0.775509
vn 0.328827 0.522239 0.786854
vn 0.238589 0.744297 -0.623776
vn 0.238589 0.744297 -0.623776
vn 0.238589 0.744297 -0.623776
vn 0.238589 0.744297 -0.623776
vn 0.154858 -0.370400 -0.915873
vn 0.154858 -0.370400 -0.915873
vn -0.541150 -0.370903 0.754710
vn -0.541150 -0.370903 0.754710
vn 0.503296 0.864113 -0.001327
vn 0.503296 0.864113 -0.001327
vn 0.503296 0.864113 -0.001327
vn 0.503296 0.864113 -0.001327
vn 0.410884 0.055611 0.909990
vn 0.414274 0.047467 0.908914
vn 0.409418 0.048718 -0.911045
vn 0.409418 0.048718 -0.911045
vn 0.259305 0.397914 -0.880014
vn 0.258055 0.400281 -0.879308
vn -0.835441 -0.549071 0.023670
vn -0.835441 -0.549071 0.023670
vn -0.835831 -0.548230 0.028817
vn -0.835820 -0.548254 0.028669
vn 0.516343 -0.257770 0.816666
vn 0.516343 -0.257770 0.816666
vn 0.105625 0.644847 -0.756978
vn 0.105625 0.644847 -0.756978
vn -0.836117 -0.547570 0.032792
vn -0.836117 -0.547570 0.032792
s 1
g pCylinder1
usemtl lambert2SG
f 1/11/1 2/12/2 12/19/3 11/18/4
s 2
f 2/12/5 3/13/6 13/20/7 12/19/8
s 3
f 3/13/9 4/46/10 14/21/11 13/20/12
s 4
f 4/46/13 5/56/14 41/50/15 40/60/16 14/21/17
s 5
f 7/47/18 8/14/19 15/48/20 46/61/21 45/58/22
s 6
f 8/14/23 9/15/24 16/69/25 15/48/26
f 9/15/27 10/16/28 17/70/29 16/69/30
s 8
f 10/16/31 1/17/32 11/72/33 17/70/34
s 1
f 11/18/4 12/19/3 19/23/35 18/22/36
s 2
f 12/19/8 13/20/7 20/24/37 19/23/38
s 3
f 13/20/12 14/21/11 21/25/39 20/24/40
s 4
f 14/21/17 40/60/16 39/52/41 22/54/42 21/25/43
s 1
f 18/22/36 19/23/35 27/27/44 26/26/45
s 2
f 19/23/38 20/24/37 28/28/46 27/27/47
s 3
f 20/24/40 21/25/39 29/29/48 28/28/49
s 4
f 21/25/43 22/54/42 30/30/50 29/29/51
f 22/54/52 23/55/53 31/31/54 30/30/55
s 5
f 23/55/56 24/49/57 32/32/58 31/31/59
f 24/49/60 25/63/61 33/33/62 32/32/63
s 11
f 2/2/64 1/1/65 36/44/66
f 3/3/67 2/2/64 36/44/66
f 4/4/68 3/3/67 36/44/66
f 5/5/69 4/4/68 36/44/66
f 6/6/70 5/5/69 36/44/66
f 7/7/71 6/6/70 36/44/66
f 8/8/72 7/7/71 36/44/66
f 9/9/73 8/8/72 36/44/66
f 10/10/74 9/9/73 36/44/66
f 1/1/65 10/10/74 36/44/66
s 12
f 26/42/75 27/41/76 37/45/77
f 27/41/76 28/40/78 37/45/77
f 28/40/78 29/39/79 37/45/77
f 29/39/79 30/38/80 37/45/77
f 30/38/80 31/37/81 37/45/77
f 31/37/81 32/36/82 37/45/77
f 32/36/82 33/35/83 37/45/77
f 33/35/83 34/34/84 37/45/77
f 34/34/84 35/43/85 37/45/77
f 35/43/85 26/42/75 37/45/77
s 5
f 47/51/86 46/61/21 15/48/20 25/63/61 24/49/60
s 4
f 38/81/87 41/50/15 49/59/88 48/79/89
f 39/52/41 38/81/87 43/80/90 42/53/91
s 5
f 42/53/92 43/80/93 44/78/94 47/51/86
f 45/58/22 44/78/94 48/79/95 49/59/96
s 4
f 39/52/41 42/53/91 23/55/53 22/54/52
s 5
f 42/53/92 47/51/86 24/49/57 23/55/56
s 4
f 5/56/97 6/57/98 49/59/88 41/50/15
s 5
f 6/57/99 7/47/100 45/58/22 49/59/96
s off
f 81/82/101 80/83/102 82/84/103
f 87/129/104 86/121/105 88/120/106
s 4
f 38/81/87 39/52/41 40/60/16 41/50/15
s 5
f 44/78/94 45/58/22 46/61/21 47/51/86
s 6
f 50/77/107 51/64/108 55/71/109 54/75/110
f 51/64/108 50/77/107 53/76/111 52/65/112
s 8
f 52/65/113 53/76/114 56/74/115 57/73/116
s 6
f 54/75/110 55/71/109 57/73/117 56/74/118
f 25/63/119 55/71/109 51/64/108
s off
f 71/85/120 70/86/121 72/87/122
s 8
f 57/73/116 18/62/123 52/65/113
s 6
f 25/63/119 51/64/108 34/66/124 33/33/125
f 51/64/108 52/65/112 35/68/126 34/66/127
s 8
f 52/65/113 18/62/123 26/67/128 35/68/129
s 6
f 15/48/26 16/69/25 55/71/109 25/63/119
f 16/69/30 17/70/29 57/73/117 55/71/109
s 8
f 17/70/34 11/72/33 18/62/123 57/73/116
s 15
f 54/93/130 56/94/131 58/95/132 61/96/133
f 61/96/133 58/95/132 59/97/134 62/98/135
f 62/98/135 59/97/134 60/88/136 63/99/137
s 16
f 56/132/138 53/101/139 64/104/140 58/130/141
f 58/130/141 64/104/140 65/106/142 59/131/143
f 59/131/143 65/106/142 66/108/144 60/133/145
s 17
f 53/101/146 50/102/147 67/103/148 64/104/149
f 64/104/149 67/103/148 68/105/150 65/106/151
f 65/106/151 68/105/150 69/107/152 66/108/153
s 18
f 50/102/154 54/93/155 61/96/156 67/103/157
f 67/103/157 61/96/156 62/98/158 68/105/159
f 68/105/159 62/98/158 63/99/160 69/107/161
s off
f 74/90/162 73/91/163 75/92/164
s 15
f 63/99/137 60/88/136 70/86/165 71/100/166
s off
f 60/88/167 69/89/168 72/87/169 70/86/170
s 18
f 69/107/161 63/99/160 71/100/171 72/135/172
s off
f 69/107/173 60/136/174 73/91/175 74/90/176
s 16
f 60/133/145 66/108/144 75/109/177 73/134/178
s 17
f 66/108/153 69/107/152 74/90/179 75/109/180
s 19
f 43/110/181 38/111/182 76/112/183 77/113/184
s 20
f 38/122/185 48/123/186 78/124/187 76/125/188
s 21
f 48/123/189 44/116/190 79/117/191 78/124/192
s off
f 44/116/193 43/110/194 77/113/195 79/117/196
s 19
f 77/113/184 76/112/183 80/114/197 81/115/198
s 20
f 76/125/188 78/124/187 82/126/199 80/127/200
s off
f 78/138/201 77/137/202 81/82/203 82/84/204
s 21
f 78/124/192 79/117/191 83/119/205 84/128/206
s 22
f 79/117/207 77/113/208 85/118/209 83/119/210
s 23
f 77/137/211 78/138/212 84/139/213 85/140/214
s 21
f 84/128/206 83/119/205 86/121/215 87/129/216
s 22
f 83/119/210 85/118/209 88/120/217 86/121/218
s 23
f 85/140/214 84/139/213 87/129/219 88/120/220
