# This file uses centimeters as units for non-parametric coordinates.

mtllib LogC.mtl
g default
v 0.954528 0.423133 1.809433
v 0.459310 -0.041130 1.800086
v -0.214475 -0.128802 1.779157
v -0.768616 0.166475 1.776638
v -0.971987 0.712773 1.801198
v -0.809165 1.290588 1.791681
v -0.344335 1.633124 1.727797
v 0.245871 1.695826 1.671851
v 0.790945 1.493945 1.704597
v 1.080515 1.025333 1.778471
v 0.981025 0.415201 0.581003
v 0.475718 -0.047797 0.568306
v -0.218321 -0.117984 0.544800
v -0.886152 0.274125 0.519135
v 0.118098 2.030843 0.493544
v 0.795779 1.665030 0.535034
v 1.117918 1.076940 0.576809
v 1.194773 0.325644 -0.238497
v 0.582159 -0.092640 -0.281747
v -0.167546 -0.148568 -0.321154
v -0.784039 0.185949 -0.353098
v -1.085329 0.810098 -0.373176
v -0.970531 1.489459 -0.379223
v -0.445811 1.939154 -0.362397
v 0.314486 1.986090 -0.315747
v 1.116608 0.340033 -2.368793
v 0.583221 -0.102962 -2.342269
v -0.141032 -0.157832 -2.277510
v -0.760564 0.183159 -2.247990
v -1.052926 0.797389 -2.252537
v -0.926942 1.428912 -2.233483
v -0.431720 1.814527 -2.168989
v 0.247796 1.851039 -2.128362
v 0.881759 1.552006 -2.186565
v 1.228068 0.986235 -2.298611
v -0.027775 0.807901 1.965869
v 0.076844 0.876277 -2.593874
v -1.208331 1.391014 0.565192
v -1.258420 0.967322 0.410356
v -1.202755 0.861312 0.512881
v -1.235463 0.949029 0.625690
v -1.199566 1.695445 0.159540
v -1.185288 1.684561 0.374278
v -0.872946 1.740228 0.589745
v -0.622413 2.047230 0.604971
v -0.521829 2.075987 0.491298
v -0.641630 2.088614 0.395199
v -1.090731 1.598426 0.820426
v -1.009753 1.513630 1.074958
v 1.105277 1.459117 -0.614326
v 0.894366 1.675375 -0.675505
v 1.305449 0.803218 -0.620758
v 1.279238 1.141328 -0.607527
v 1.066252 1.476663 -0.360421
v 0.810872 1.719703 -0.163926
v 1.239364 1.154590 -0.329572
v 1.233670 0.844263 -0.108273
v 1.421116 1.197275 -0.331755
v 1.593765 1.387281 -0.534527
v 1.291497 1.458688 -0.393827
v 1.447714 1.166943 -0.668179
v 1.317715 1.426549 -0.700708
v -1.362062 1.279339 0.615801
v -1.377971 1.456951 0.607036
v -1.272743 1.428215 0.738658
v -1.293868 1.646346 0.676082
v -1.554738 1.217889 0.744435
v -1.633077 1.339250 0.880634
v -1.518489 1.315675 0.995639
v -1.522363 1.667371 0.988987
v -1.499829 1.448093 1.052123
v -1.607138 1.478581 0.919763
v -1.613324 1.641568 1.482051
v -1.669098 1.465161 1.656675
v -1.759657 1.485062 1.512819
vt 0.855497 0.762091
vt 0.798832 0.701912
vt 0.717618 0.686534
vt 0.642875 0.721829
vt 0.603153 0.794317
vt 0.613624 0.876309
vt 0.670288 0.936487
vt 0.751503 0.951865
vt 0.826246 0.916569
vt 0.865968 0.844082
vt 0.069475 0.071424
vt 0.117867 0.071423
vt 0.166260 0.071423
vt 0.408224 0.071420
vt 0.456617 0.071420
vt 0.505009 0.071419
vt 0.553402 0.071419
vt 0.069477 0.313387
vt 0.117870 0.313387
vt 0.166263 0.313386
vt 0.214656 0.313386
vt 0.069480 0.555351
vt 0.117873 0.555351
vt 0.166266 0.555350
vt 0.214659 0.555350
vt 0.069483 0.797315
vt 0.117875 0.797314
vt 0.166268 0.797314
vt 0.214661 0.797313
vt 0.263053 0.797313
vt 0.311446 0.797312
vt 0.359839 0.797312
vt 0.408232 0.797311
vt 0.903763 0.551742
vt 0.902452 0.469118
vt 0.852826 0.403045
vt 0.773842 0.378760
vt 0.695666 0.405539
vt 0.648162 0.473154
vt 0.649474 0.555778
vt 0.699099 0.621851
vt 0.778085 0.646136
vt 0.856259 0.619357
vt 0.734560 0.819200
vt 0.775963 0.512448
vt 0.214653 0.071422
vt 0.359832 0.071421
vt 0.408227 0.313384
vt 0.359837 0.555348
vt 0.263048 0.292033
vt 0.359834 0.331541
vt 0.263049 0.331460
vt 0.311441 0.331455
vt 0.263051 0.555349
vt 0.311444 0.555349
vt 0.263046 0.071422
vt 0.311439 0.071421
vt 0.359834 0.291089
vt 0.311440 0.214826
vt 0.255307 0.313386
vt 0.367925 0.313384
vt 0.553408 0.555346
vt 0.408230 0.555348
vt 0.448835 0.585889
vt 0.518226 0.581774
vt 0.456625 0.797311
vt 0.553410 0.797310
vt 0.505017 0.797310
vt 0.456620 0.313383
vt 0.505012 0.313383
vt 0.447499 0.465851
vt 0.553405 0.313382
vt 0.517467 0.461325
vt 0.492854 0.500307
vt 0.468353 0.503072
vt 0.492360 0.539869
vt 0.468497 0.538710
vt 0.335316 0.296419
vt 0.311441 0.257827
vt 0.311441 0.296149
vt 0.286903 0.296335
vt 0.638330 0.087947
vt 0.651220 0.066401
vt 0.653264 0.092909
vt 0.747096 0.255001
vt 0.696126 0.244379
vt 0.728593 0.201789
vt 0.759923 0.212582
vt 0.783971 0.163860
vt 0.835445 0.246111
vt 0.790401 0.255760
vt 0.773785 0.213232
vt 0.812701 0.205942
vt 0.626512 0.350090
vt 0.600754 0.375395
vt 0.585957 0.316732
vt 0.609989 0.311022
vt 0.571175 0.291080
vt 0.585923 0.270728
vt 0.656963 0.364440
vt 0.644791 0.308064
vt 0.606413 0.266608
vt 0.635470 0.264890
vt 0.615702 0.204001
vt 0.626079 0.225048
vt 0.712685 0.351228
vt 0.680283 0.345449
vt 0.677557 0.297742
vt 0.701961 0.291686
vt 0.682566 0.253161
vt 0.704843 0.262220
vt 0.662491 0.255809
vt 0.642539 0.202443
vt 0.846810 0.200090
vt 0.861552 0.236472
vt 0.640204 0.112493
vt 0.655655 0.116550
vt 0.639305 0.150350
vt 0.623854 0.146292
vn 0.679462 -0.733532 0.016202
vn 0.679462 -0.733532 0.016202
vn 0.651251 -0.754356 0.082581
vn 0.648462 -0.756064 0.088683
vn 0.114682 -0.993402 -0.001088
vn 0.114682 -0.993402 -0.001088
vn 0.102209 -0.994544 0.020862
vn 0.101263 -0.994605 0.022521
vn -0.489891 -0.871606 -0.017574
vn -0.489891 -0.871606 -0.017574
vn -0.491237 -0.871020 -0.003291
vn -0.491264 -0.871005 -0.002993
vn -0.903372 -0.420582 0.083846
vn -0.903372 -0.420582 0.083846
vn -0.967799 -0.190094 0.165013
vn -0.900915 -0.433765 0.014115
vn -0.898124 -0.439497 0.014721
vn 0.008403 0.951269 0.308247
vn 0.008403 0.951269 0.308247
vn 0.014361 0.992522 0.121216
vn 0.004412 0.992219 0.124425
vn -0.184437 0.923307 0.336878
vn 0.406196 0.897419 0.172176
vn 0.406196 0.897418 0.172176
vn 0.427778 0.893646 0.135659
vn 0.429913 0.893175 0.131959
vn 0.860749 0.505144 0.062772
vn 0.860749 0.505144 0.062772
vn 0.876047 0.480196 0.044188
vn 0.876126 0.480063 0.044090
vn 0.978932 -0.202989 0.022093
vn 0.978932 -0.202989 0.022093
vn 0.975725 -0.191068 0.107018
vn 0.976841 -0.193335 0.091674
vn 0.603972 -0.795791 0.043982
vn 0.603811 -0.796125 0.039953
vn 0.077978 -0.996768 0.019319
vn 0.077751 -0.996806 0.018239
vn -0.484245 -0.874926 0.003339
vn -0.483747 -0.875204 0.002611
vn -0.962644 -0.218672 -0.159687
vn -0.895418 -0.443730 -0.036480
vn -0.896775 -0.441383 -0.031244
vn 0.600862 -0.799265 -0.011831
vn 0.600862 -0.799265 -0.011831
vn 0.075050 -0.997165 0.005377
vn 0.075050 -0.997165 0.005377
vn -0.479562 -0.877501 -0.003478
vn -0.479562 -0.877501 -0.003478
vn -0.901592 -0.432433 -0.011572
vn -0.901592 -0.432434 -0.011572
vn -0.983646 0.151093 -0.098036
vn -0.982440 0.141348 -0.121792
vn -0.983232 0.180833 -0.023560
vn -0.983232 0.180833 -0.023560
vn -0.603144 0.783652 -0.148686
vn -0.603974 0.783518 -0.145997
vn -0.630495 0.774638 -0.049117
vn -0.630495 0.774638 -0.049117
vn -0.026130 0.995993 -0.085523
vn -0.031554 0.996084 -0.082586
vn -0.053445 0.996065 -0.070691
vn -0.053445 0.996066 -0.070691
vn 0.054787 -0.160986 0.985435
vn 0.137862 -0.050214 0.989178
vn 0.001590 0.038066 0.999274
vn -0.050780 -0.185487 0.981334
vn -0.128499 -0.141176 0.981610
vn -0.169473 -0.023390 0.985257
vn -0.121971 0.156259 0.980156
vn 0.002975 0.278241 0.960507
vn 0.055697 0.298345 0.952832
vn 0.092069 0.256545 0.962137
vn 0.142496 0.120412 0.982444
vn 0.181078 -0.060900 -0.981581
vn 0.029460 -0.234430 -0.971686
vn -0.026140 0.073367 -0.996962
vn -0.123853 -0.266339 -0.955889
vn -0.233814 -0.193045 -0.952924
vn -0.287718 -0.022311 -0.957455
vn -0.225734 0.210305 -0.951218
vn -0.064919 0.382239 -0.921780
vn 0.071105 0.419672 -0.904887
vn 0.164759 0.357782 -0.919155
vn 0.228239 0.179802 -0.956859
vn -0.257458 0.947957 -0.187330
vn -0.973765 0.103613 0.202600
vn -0.937139 0.191654 0.291615
vn -0.934886 0.106859 0.338480
vn -0.992952 0.104095 0.056665
vn -0.970126 0.071229 -0.231909
vn -0.547952 0.801743 -0.238656
vn -0.566846 0.744427 0.352867
vn -0.608282 0.750274 0.259002
vn -0.640148 0.749331 0.169453
vn -0.539159 0.754719 0.373774
vn -0.936437 0.210418 0.280733
vn -0.936437 0.210418 0.280733
vn -0.524964 0.752702 0.397306
vn -0.524964 0.752702 0.397306
vn -0.530796 -0.761074 0.372857
vn -0.530796 -0.761074 0.372857
vn -0.530796 -0.761074 0.372857
vn -0.598359 0.651228 0.466765
vn -0.598359 0.651228 0.466765
vn -0.598359 0.651228 0.466765
vn 0.617496 0.468546 -0.631793
vn 0.671679 0.739041 -0.051620
vn 0.682245 0.728149 0.065880
vn 0.758655 0.537795 0.367721
vn 0.311633 0.104367 -0.944454
vn 0.884466 0.465550 -0.031368
vn 0.982797 -0.182815 -0.026248
vn 0.988121 0.074412 0.134464
vn 0.988121 0.074412 0.134464
vn 0.966927 -0.130462 0.219163
vn 0.884603 0.455994 0.097708
vn 0.743210 0.408134 0.530155
vn 0.442715 0.896436 -0.020162
vn 0.979929 -0.192682 0.051118
vn 0.425231 0.901521 -0.080239
vn 0.425231 0.901521 -0.080239
vn 0.884385 0.466475 -0.016231
vn 0.884386 0.466475 -0.016231
vn 0.976990 -0.207186 -0.050646
vn 0.976990 -0.207186 -0.050646
vn 0.073757 0.194049 0.978215
vn 0.073757 0.194049 0.978215
vn 0.229751 0.287300 0.929878
vn 0.173474 0.254277 0.951446
vn 0.462686 0.415384 0.783184
vn 0.206388 -0.974187 0.091454
vn 0.206388 -0.974187 0.091454
vn 0.497330 -0.860640 0.109370
vn 0.442671 -0.890322 0.106628
vn 0.793809 -0.596890 0.116574
vn -0.352853 -0.247221 -0.902428
vn -0.352853 -0.247221 -0.902428
vn -0.163531 -0.167878 -0.972149
vn -0.039610 -0.113534 -0.992744
vn 0.525685 0.158514 -0.835780
vn 0.093538 0.992629 -0.077063
vn 0.093538 0.992629 -0.077063
vn 0.125040 0.988917 -0.080057
vn 0.139693 0.986841 -0.081426
vn 0.190923 0.977822 -0.086094
vn -0.353090 -0.360536 -0.863332
vn -0.353090 -0.360536 -0.863332
vn -0.595072 -0.064830 -0.801053
vn -0.500931 -0.194809 -0.843278
vn 0.576889 -0.728042 0.370343
vn 0.576889 -0.728042 0.370342
vn 0.575564 -0.741073 0.345742
vn 0.573632 -0.754491 0.318888
vn -0.299768 0.695676 0.652820
vn -0.299768 0.695676 0.652820
vn 0.392649 0.542051 0.742972
vn 0.539023 0.458899 0.706305
vn -0.489864 0.869284 -0.066168
vn -0.489864 0.869284 -0.066168
vn -0.489864 0.869284 -0.066168
vn -0.489864 0.869284 -0.066168
vn -0.685504 0.091759 -0.722263
vn -0.685504 0.091759 -0.722263
vn 0.572755 -0.759449 0.308526
vn 0.572755 -0.759449 0.308526
vn -0.114375 0.946218 0.302637
vn -0.114375 0.946218 0.302637
vn -0.114375 0.946218 0.302637
vn -0.114375 0.946218 0.302637
vn 0.906416 0.147163 0.395920
vn 0.913472 0.139577 0.382213
vn -0.682495 0.499758 -0.533332
vn -0.682495 0.499758 -0.533332
vn -0.771595 0.545904 -0.326544
vn -0.768607 0.544515 -0.335779
vn -0.185719 -0.980081 -0.070351
vn -0.185719 -0.980081 -0.070351
vn -0.194273 -0.979657 -0.050300
vn -0.194181 -0.979664 -0.050516
vn 0.971340 0.057052 0.230745
vn 0.971340 0.057052 0.230745
vn -0.809780 0.561095 -0.171549
vn -0.809780 0.561095 -0.171549
vn -0.200850 -0.979007 -0.034717
vn -0.200850 -0.979007 -0.034717
s 1
g pCylinder1
usemtl lambert2SG
f 1/11/1 2/12/2 12/19/3 11/18/4
s 2
f 2/12/5 3/13/6 13/20/7 12/19/8
s 3
f 3/13/9 4/46/10 14/21/11 13/20/12
s 4
f 4/46/13 5/56/14 41/50/15 40/60/16 14/21/17
s 5
f 7/47/18 8/14/19 15/48/20 46/61/21 45/58/22
s 6
f 8/14/23 9/15/24 16/69/25 15/48/26
f 9/15/27 10/16/28 17/70/29 16/69/30
s 8
f 10/16/31 1/17/32 11/72/33 17/70/34
s 1
f 11/18/4 12/19/3 19/23/35 18/22/36
s 2
f 12/19/8 13/20/7 20/24/37 19/23/38
s 3
f 13/20/12 14/21/11 21/25/39 20/24/40
s 4
f 14/21/17 40/60/16 39/52/41 22/54/42 21/25/43
s 1
f 18/22/36 19/23/35 27/27/44 26/26/45
s 2
f 19/23/38 20/24/37 28/28/46 27/27/47
s 3
f 20/24/40 21/25/39 29/29/48 28/28/49
s 4
f 21/25/43 22/54/42 30/30/50 29/29/51
f 22/54/52 23/55/53 31/31/54 30/30/55
s 5
f 23/55/56 24/49/57 32/32/58 31/31/59
f 24/49/60 25/63/61 33/33/62 32/32/63
s 11
f 2/2/64 1/1/65 36/44/66
f 3/3/67 2/2/64 36/44/66
f 4/4/68 3/3/67 36/44/66
f 5/5/69 4/4/68 36/44/66
f 6/6/70 5/5/69 36/44/66
f 7/7/71 6/6/70 36/44/66
f 8/8/72 7/7/71 36/44/66
f 9/9/73 8/8/72 36/44/66
f 10/10/74 9/9/73 36/44/66
f 1/1/65 10/10/74 36/44/66
s 12
f 26/42/75 27/41/76 37/45/77
f 27/41/76 28/40/78 37/45/77
f 28/40/78 29/39/79 37/45/77
f 29/39/79 30/38/80 37/45/77
f 30/38/80 31/37/81 37/45/77
f 31/37/81 32/36/82 37/45/77
f 32/36/82 33/35/83 37/45/77
f 33/35/83 34/34/84 37/45/77
f 34/34/84 35/43/85 37/45/77
f 35/43/85 26/42/75 37/45/77
s 5
f 47/51/86 46/61/21 15/48/20 25/63/61 24/49/60
s 4
f 38/81/87 41/50/15 49/59/88 48/79/89
f 39/52/41 38/81/87 43/80/90 42/53/91
s 5
f 42/53/92 43/80/93 44/78/94 47/51/86
f 45/58/22 44/78/94 48/79/95 49/59/96
s 4
f 39/52/41 42/53/91 23/55/53 22/54/52
s 5
f 42/53/92 47/51/86 24/49/57 23/55/56
s 4
f 5/56/97 6/57/98 49/59/88 41/50/15
s 5
f 6/57/99 7/47/100 45/58/22 49/59/96
s off
f 68/82/101 67/83/102 69/84/103
f 74/113/104 73/105/105 75/104/106
s 4
f 38/81/87 39/52/41 40/60/16 41/50/15
s 5
f 44/78/94 45/58/22 46/61/21 47/51/86
s 6
f 50/77/107 51/64/108 55/71/109 54/75/110
f 51/64/108 50/77/107 53/76/111 52/65/112
s 8
f 52/65/113 53/76/114 56/74/115 57/73/116
s 6
f 54/75/110 55/71/109 57/73/117 56/74/118
f 25/63/119 55/71/109 51/64/108
s 8
f 57/73/116 18/62/120 52/65/113
s 6
f 25/63/119 51/64/108 34/66/121 33/33/122
f 51/64/108 52/65/112 35/68/123 34/66/124
s 8
f 52/65/113 18/62/120 26/67/125 35/68/126
s 6
f 15/48/26 16/69/25 55/71/109 25/63/119
f 16/69/30 17/70/29 57/73/117 55/71/109
s 8
f 17/70/34 11/72/33 18/62/120 57/73/116
s 15
f 54/85/127 56/86/128 58/87/129 60/88/130
f 60/88/130 58/87/129 59/89/131
s 16
f 56/115/132 53/90/133 61/93/134 58/114/135
f 58/114/135 61/93/134 59/89/136
s 17
f 53/90/137 50/91/138 62/92/139 61/93/140
f 61/93/140 62/92/139 59/89/141
s 18
f 50/91/142 54/85/143 60/88/144 62/92/145
f 62/92/145 60/88/144 59/89/146
s 19
f 43/94/147 38/95/148 63/96/149 64/97/150
s 20
f 38/106/151 48/107/152 65/108/153 63/109/154
s 21
f 48/107/155 44/100/156 66/101/157 65/108/158
s off
f 44/100/159 43/94/160 64/97/161 66/101/162
s 19
f 64/97/150 63/96/149 67/98/163 68/99/164
s 20
f 63/109/154 65/108/153 69/110/165 67/111/166
s off
f 65/117/167 64/116/168 68/82/169 69/84/170
s 21
f 65/108/158 66/101/157 70/103/171 71/112/172
s 22
f 66/101/173 64/97/174 72/102/175 70/103/176
s 23
f 64/116/177 65/117/178 71/118/179 72/119/180
s 21
f 71/112/172 70/103/171 73/105/181 74/113/182
s 22
f 70/103/176 72/102/175 75/104/183 73/105/184
s 23
f 72/119/180 71/118/179 74/113/185 75/104/186
